<svg width="140" height="808" viewBox="0 0 140 808" fill="none" xmlns="http://www.w3.org/2000/svg">
<g clip-path="url(#clip0_2_2)">
<rect width="140" height="808" fill="white"/>
<g clip-path="url(#clip1_2_2)">
<path d="M32.76 750.566C32.76 737.11 35.4776 727.216 40.913 720.884C46.3482 714.453 53.4635 711.238 62.2588 711.238C65.2235 711.238 68.5341 711.634 72.1906 712.425C80.2941 714.305 87.4094 717.817 93.5365 722.962C99.5647 728.107 104.259 734.439 107.619 741.958C110.88 749.379 112.511 757.442 112.511 766.149C112.511 779.901 109.793 790.092 104.358 796.721C98.8235 803.251 91.5106 806.516 82.4188 806.516C79.3553 806.516 75.9459 806.12 72.1906 805.329C64.4824 803.449 57.6635 799.887 51.7341 794.643C45.7059 789.301 41.0612 782.82 37.8 775.202C34.44 767.485 32.76 759.273 32.76 750.566ZM45.953 751.011C45.953 753.089 47.8306 755.315 51.5859 757.69C55.2424 759.965 62.2094 762.686 72.4871 765.852C82.7647 769.018 89.9788 770.601 94.1294 770.601C96.3035 770.601 97.7859 770.255 98.5765 769.562C99.2683 768.87 99.6141 767.93 99.6141 766.743C99.8118 764.665 98.033 762.538 94.2777 760.361C90.5224 758.085 83.2094 755.266 72.3388 751.902C62.753 748.835 55.7859 747.301 51.4377 747.301C49.3624 747.301 47.9294 747.647 47.1388 748.34C46.3482 748.934 45.953 749.824 45.953 751.011Z" fill="#101010"/>
<path d="M90.72 622.531C91.1153 622.729 91.7082 622.828 92.4988 622.828C93.1906 622.828 93.7341 622.68 94.1294 622.383C94.5247 621.987 94.7223 621.493 94.7223 620.899C94.7223 619.712 94.2282 618.722 93.24 617.931C92.1529 617.04 91.6094 616.447 91.6094 616.15C91.6094 615.655 91.9553 615.259 92.647 614.963C93.24 614.666 93.9812 614.517 94.8706 614.517C97.7365 614.418 100.553 615.358 103.32 617.337C105.988 619.316 108.212 622.235 109.991 626.093C111.671 629.853 112.511 634.404 112.511 639.747C112.511 646.277 111.028 651.471 108.064 655.33C105 659.188 100.948 661.167 95.9082 661.266C92.2517 661.266 88.1506 660.376 83.6047 658.595L62.2588 650.432C60.9741 649.937 59.9365 649.69 59.1459 649.69C57.8612 649.69 56.8729 650.135 56.1812 651.026C55.3906 651.817 54.9953 652.807 54.9953 653.994C54.9953 655.874 55.8847 657.803 57.6635 659.782C59.3435 661.662 62.1106 663.195 65.9647 664.383H65.6682L95.76 673.732C96.9459 674.029 97.9835 674.177 98.8729 674.177C100.158 674.177 101.195 673.93 101.986 673.435C102.678 672.941 103.369 672.248 104.061 671.358C104.753 670.665 105.346 670.17 105.84 669.874C106.235 669.577 106.779 669.527 107.471 669.725C108.755 670.22 109.694 671.209 110.287 672.693C110.88 674.177 111.176 676.453 111.176 679.52V713.357C111.176 715.93 110.781 717.809 109.991 718.997C109.101 720.184 107.965 720.58 106.581 720.184C105.395 719.788 104.358 718.749 103.468 717.067C102.678 715.583 101.739 714.347 100.652 713.357C99.5647 712.368 97.8353 711.527 95.4635 710.834L21.4941 688.276C20.6047 687.979 19.8635 687.831 19.2706 687.831C18.1835 687.831 17.2941 688.128 16.6023 688.721C15.9106 689.216 15.2188 689.909 14.527 690.799C13.7365 691.789 13.0447 692.531 12.4517 693.025C11.8588 693.421 11.0682 693.471 10.08 693.174C7.80704 692.58 5.83057 689.464 4.15053 683.824C2.47055 678.184 1.63055 672.298 1.63055 666.163C1.63055 660.425 2.71761 656.22 4.89175 653.549C7.06586 650.778 10.0306 649.393 13.7859 649.393C15.96 649.393 18.0847 649.74 20.16 650.432L46.2494 658.446C41.2094 654.588 37.7012 650.531 35.7247 646.277C33.7482 641.923 32.76 637.224 32.76 632.178C32.76 626.143 34.5882 621.295 38.2447 617.634C41.9012 613.874 46.6447 611.994 52.4753 611.994C55.5388 611.994 58.5529 612.489 61.5176 613.479L90.72 622.531Z" fill="#101010"/>
<path d="M90.72 467.005C91.1153 467.203 91.7083 467.302 92.4988 467.302C93.1906 467.302 93.7341 467.154 94.1294 466.857C94.5247 466.461 94.7224 465.967 94.7224 465.373C94.7224 464.186 94.2282 463.196 93.24 462.405C92.153 461.514 91.6094 460.921 91.6094 460.624C91.6094 460.129 91.9553 459.733 92.6471 459.437C93.24 459.14 93.9812 458.991 94.8706 458.991C97.7365 458.892 100.553 459.832 103.32 461.811C105.988 463.79 108.212 466.709 109.991 470.567C111.671 474.327 112.511 478.878 112.511 484.221C112.511 490.751 111.028 495.945 108.064 499.804C105 503.662 100.948 505.641 95.9082 505.74C92.2518 505.74 88.1506 504.85 83.6047 503.069L62.2588 494.906C60.9741 494.411 59.9365 494.164 59.1459 494.164C57.8612 494.164 56.873 494.609 56.1812 495.5C55.3906 496.291 54.9953 497.281 54.9953 498.468C54.9953 500.15 55.7365 501.881 57.2188 503.662C58.7012 505.443 61.0235 507.026 64.1859 508.411L90.72 516.574C91.1153 516.772 91.7083 516.871 92.4988 516.871C93.1906 516.871 93.7341 516.722 94.1294 516.425C94.5247 516.03 94.7224 515.535 94.7224 514.941C94.7224 513.754 94.2282 512.765 93.24 511.973C92.153 511.083 91.6094 510.489 91.6094 510.192C91.6094 509.698 91.9553 509.302 92.6471 509.005C93.24 508.708 93.9812 508.56 94.8706 508.56C97.7365 508.461 100.553 509.401 103.32 511.379C105.988 513.358 108.212 516.277 109.991 520.136C111.671 523.895 112.511 528.446 112.511 533.789C112.511 540.319 111.028 545.513 108.064 549.372C105 553.231 100.948 555.209 95.9082 555.308C92.2518 555.308 88.1506 554.418 83.6047 552.637L62.2588 544.475C60.9741 543.98 59.9365 543.732 59.1459 543.732C57.8612 543.732 56.873 544.178 56.1812 545.068C55.3906 545.86 54.9953 546.849 54.9953 548.036C54.9953 549.718 55.7365 551.45 57.2188 553.231C58.6024 555.011 60.8753 556.496 64.0377 557.683L95.76 567.478C96.8471 567.874 97.8847 568.071 98.873 568.071C100.059 568.071 101.047 567.824 101.838 567.329C102.529 566.835 103.271 566.142 104.061 565.252C104.654 564.559 105.198 564.064 105.692 563.768C106.186 563.471 106.779 563.421 107.471 563.619C108.755 564.015 109.694 564.955 110.287 566.439C110.88 567.923 111.176 570.248 111.176 573.414V607.251C111.176 609.824 110.781 611.654 109.991 612.742C109.101 613.93 107.965 614.375 106.581 614.078C105.395 613.682 104.358 612.643 103.468 610.961C102.678 609.477 101.739 608.241 100.652 607.251C99.5647 606.262 97.8353 605.421 95.4635 604.728L52.6235 591.52C52.1294 591.322 51.4377 591.223 50.5482 591.223C49.4612 591.223 48.6212 591.47 48.0282 591.965C47.4353 592.361 46.6941 593.053 45.8047 594.043C45.0141 595.032 44.3224 595.725 43.7294 596.121C43.1365 596.516 42.3459 596.566 41.3577 596.269C39.0847 595.675 37.1082 592.559 35.4282 586.919C33.6494 581.28 32.76 575.393 32.76 569.259C32.76 564.411 34.0941 560.602 36.7624 557.831C39.4306 554.962 43.0871 553.577 47.7318 553.676C42.0988 549.619 38.1953 545.365 36.0212 540.913C33.8471 536.362 32.76 531.464 32.76 526.22C32.76 520.482 34.44 515.832 37.8 512.27C41.0612 508.609 45.36 506.581 50.6965 506.185C43.9765 501.931 39.3318 497.38 36.7624 492.532C34.0941 487.684 32.76 482.39 32.76 476.652C32.76 470.617 34.5882 465.769 38.2447 462.108C41.9012 458.348 46.6447 456.468 52.4753 456.468C55.5388 456.468 58.553 456.963 61.5177 457.953L90.72 467.005Z" fill="#101010"/>
<path d="M32.76 375.423C32.76 371.07 34.5388 367.607 38.0965 365.035C41.5553 362.363 46.2988 361.028 52.327 361.028C57.5647 361.028 63.1976 361.968 69.2259 363.847C81.3812 367.508 92.8447 373.395 103.616 381.508C114.388 389.522 123.035 398.775 129.558 409.262C136.08 419.651 139.341 430.039 139.341 440.428C139.341 445.572 138.452 450.025 136.673 453.785C134.894 457.445 132.522 460.216 129.558 462.096C126.593 464.074 123.431 465.064 120.071 465.064C118.588 465.064 116.958 464.816 115.179 464.322C112.412 463.431 110.287 461.947 108.805 459.869C107.322 457.792 106.581 455.318 106.581 452.449C106.581 447.898 108.113 444.188 111.176 441.318C114.339 438.35 118.638 436.47 124.073 435.679C123.776 429.346 121.059 423.509 115.92 418.167C115.031 423.213 113.351 426.972 110.88 429.446C108.311 431.82 104.358 433.453 99.0212 434.343L62.7035 440.28C60.8259 440.576 59.5412 441.022 58.8494 441.615C58.0588 442.11 57.6635 442.802 57.6635 443.693C57.6635 444.385 58.0094 445.227 58.7012 446.216C59.3929 447.106 59.7388 447.75 59.7388 448.145C59.7388 448.937 58.8988 449.333 57.2188 449.333C55.8353 449.333 54.3529 449.085 52.7718 448.59C47.1388 446.81 42.3953 443.495 38.5412 438.647C34.5882 433.799 32.6118 428.16 32.6118 421.729C32.6118 415.397 34.4894 410.746 38.2447 407.778C42 404.711 47.7812 402.732 55.5882 401.842L88.2 397.39C90.6706 397.093 91.9059 396.202 91.9059 394.716C91.9059 392.935 90.3247 390.858 87.1623 388.483C83.9012 386.109 79.3059 383.784 73.3765 381.508C70.7082 384.476 67.6447 386.752 64.1859 388.335C60.727 389.918 57.0212 390.709 53.0682 390.709C50.0047 390.709 47.2376 390.313 44.767 389.522C40.8141 388.335 37.8494 386.504 35.8729 384.031C33.7976 381.458 32.76 378.589 32.76 375.423Z" fill="#101010"/>
<path d="M1.63055 301.499C1.63055 290.913 3.26114 282.998 6.52234 277.754C9.68469 272.411 13.5882 269.74 18.2329 269.74C21.9882 269.74 24.9035 271.323 26.9788 274.489C28.9553 277.556 29.9435 281.613 29.9435 286.659C29.9435 291.309 28.807 294.92 26.5341 297.492C24.2612 300.065 21.4447 301.351 18.0847 301.351C16.0094 301.351 13.8353 300.708 11.5623 299.422C11.5623 302.39 12.3035 304.863 13.7859 306.842C15.1694 308.821 17.5906 310.354 21.0494 311.443C23.2235 312.036 25.2494 312.333 27.127 312.333C29.4988 312.333 31.3765 311.937 32.76 311.146C34.0447 310.256 34.687 309.019 34.687 307.436V298.68C34.687 293.535 36.2682 290.962 39.4306 290.962C39.8259 290.962 40.4188 291.061 41.2094 291.259C43.3835 291.853 45.0141 293.09 46.1012 294.97C47.1882 296.75 47.7317 299.471 47.7317 303.132V307.584L95.76 322.277C96.9459 322.573 97.9835 322.722 98.8729 322.722C100.158 322.722 101.195 322.474 101.986 321.98C102.678 321.485 103.369 320.793 104.061 319.902C104.753 319.21 105.346 318.715 105.84 318.418C106.235 318.121 106.779 318.072 107.471 318.27C108.755 318.764 109.694 319.754 110.287 321.238C110.88 322.722 111.176 324.997 111.176 328.065V361.902C111.176 364.474 110.781 366.354 109.991 367.541C109.101 368.728 107.965 369.124 106.581 368.728C105.395 368.333 104.358 367.294 103.468 365.612C102.678 364.128 101.739 362.891 100.652 361.902C99.5647 360.912 97.8353 360.071 95.4635 359.379L57.5153 347.803C56.0329 347.308 54.5012 347.061 52.92 347.061C50.9435 347.061 49.4117 347.506 48.3247 348.396C47.1388 349.188 45.8541 350.425 44.4706 352.107C43.5812 353.195 42.84 354.036 42.247 354.63C41.5553 355.124 40.7647 355.372 39.8753 355.372C37.9976 355.471 36.6635 354.827 35.8729 353.442C35.0823 351.958 34.687 349.188 34.687 345.131V341.421C32.2165 342.114 29.7459 342.46 27.2753 342.46C24.8047 342.46 22.2353 342.015 19.567 341.124C14.527 339.245 10.2776 335.238 6.81877 329.103C3.35997 322.87 1.63055 313.669 1.63055 301.499Z" fill="#101010"/>
<path d="M32.76 242.878C32.76 229.423 35.4776 219.529 40.913 213.197C46.3482 206.766 53.4635 203.55 62.2588 203.55C65.2235 203.55 68.5341 203.946 72.1906 204.737C80.2941 206.617 87.4094 210.129 93.5365 215.274C99.5647 220.419 104.259 226.751 107.619 234.271C110.88 241.691 112.511 249.754 112.511 258.461C112.511 272.214 109.793 282.404 104.358 289.033C98.8235 295.563 91.5106 298.828 82.4188 298.828C79.3553 298.828 75.9459 298.432 72.1906 297.641C64.4824 295.761 57.6635 292.199 51.7341 286.955C45.7059 281.613 41.0612 275.132 37.8 267.514C34.44 259.797 32.76 251.585 32.76 242.878ZM45.953 243.323C45.953 245.401 47.8306 247.627 51.5859 250.002C55.2424 252.277 62.2094 254.998 72.4871 258.164C82.7647 261.33 89.9788 262.913 94.1294 262.913C96.3035 262.913 97.7859 262.567 98.5765 261.874C99.2683 261.182 99.6141 260.242 99.6141 259.055C99.8118 256.977 98.033 254.85 94.2777 252.673C90.5224 250.398 83.2094 247.578 72.3388 244.214C62.753 241.147 55.7859 239.613 51.4377 239.613C49.3624 239.613 47.9294 239.96 47.1388 240.652C46.3482 241.246 45.953 242.136 45.953 243.323Z" fill="#101010"/>
<path d="M32.76 145.485C32.76 132.03 35.4776 122.136 40.913 115.804C46.3482 109.373 53.4635 106.157 62.2588 106.157C65.2235 106.157 68.5341 106.553 72.1906 107.344C80.2941 109.224 87.4094 112.737 93.5365 117.881C99.5647 123.026 104.259 129.358 107.619 136.878C110.88 144.298 112.511 152.362 112.511 161.068C112.511 174.821 109.793 185.011 104.358 191.64C98.8235 198.17 91.5106 201.435 82.4188 201.435C79.3553 201.435 75.9459 201.039 72.1906 200.248C64.4824 198.368 57.6635 194.806 51.7341 189.563C45.7059 184.22 41.0612 177.739 37.8 170.121C34.44 162.404 32.76 154.192 32.76 145.485ZM45.953 145.931C45.953 148.008 47.8306 150.234 51.5859 152.609C55.2424 154.885 62.2094 157.605 72.4871 160.771C82.7647 163.937 89.9788 165.52 94.1294 165.52C96.3035 165.52 97.7859 165.174 98.5765 164.482C99.2683 163.789 99.6141 162.849 99.6141 161.662C99.8118 159.584 98.033 157.457 94.2777 155.28C90.5224 153.005 83.2094 150.185 72.3388 146.821C62.753 143.754 55.7859 142.22 51.4377 142.22C49.3624 142.22 47.9294 142.567 47.1388 143.259C46.3482 143.853 45.953 144.743 45.953 145.931Z" fill="#101010"/>
<path d="M89.8306 22.5663C90.6212 22.7642 91.1647 22.8631 91.4612 22.8631C92.1529 22.8631 92.6965 22.6652 93.0917 22.2694C93.487 21.8737 93.6847 21.3791 93.6847 20.7854C93.6847 19.5982 93.1906 18.6088 92.2023 17.8173C91.1153 16.9268 90.5718 16.3331 90.5718 16.0363C90.5718 15.5416 90.9176 15.1459 91.6094 14.8491C92.3012 14.5523 93.0917 14.4039 93.9812 14.4039C96.6494 14.3049 99.367 15.3438 102.134 17.5204C104.901 19.5981 107.174 22.4179 108.953 25.9797C110.732 29.5415 111.621 33.4001 111.621 37.5555C111.621 42.5025 110.682 46.8063 108.805 50.467C106.927 54.1278 104.456 56.6507 101.393 58.0358C104.852 60.7072 107.421 63.7743 109.101 67.2371C110.781 70.7 111.621 74.3607 111.621 78.2193C111.621 82.7705 110.485 87.0249 108.212 90.9825C105.939 94.8411 102.727 97.9576 98.5765 100.332C94.327 102.608 89.5341 103.746 84.1976 103.746C75.2047 103.746 66.7553 102.064 58.8494 98.6997C50.8447 95.2368 44.4212 90.4383 39.5788 84.3041C34.6376 78.1699 32.167 71.1947 32.167 63.3785C32.167 59.1241 32.6612 55.5129 33.6494 52.5447C34.6376 49.4776 36.12 46.7073 38.0965 44.2339L21.4941 39.188C20.6047 38.8912 19.8635 38.7428 19.2706 38.7428C18.1835 38.7428 17.2941 39.0396 16.6023 39.6332C15.9106 40.1279 15.2188 40.8205 14.527 41.7109C13.7365 42.7003 13.0447 43.4424 12.4517 43.9371C11.8588 44.3328 11.0682 44.3823 10.08 44.0855C7.80704 43.4918 5.83057 40.3752 4.15053 34.7357C2.47055 29.0962 1.63055 23.2094 1.63055 17.0752C1.63055 11.3367 2.71761 7.13184 4.89175 4.4605C7.06586 1.69021 10.0306 0.305088 13.7859 0.305088C15.96 0.305088 18.0847 0.651369 20.16 1.34394L89.8306 22.5663ZM48.1765 47.3504C46.7929 48.9334 46.1012 50.6649 46.1012 52.5447C46.1012 55.414 48.2259 58.2337 52.4753 61.004C56.7247 63.7743 61.8635 66.0004 67.8918 67.6824C73.92 69.3643 79.3553 70.1558 84.1976 70.0569C89.6329 70.0569 92.3506 68.276 92.3506 64.7142C92.3506 63.428 91.8565 62.3397 90.8682 61.4492C89.7812 60.5588 88.0518 59.7178 85.68 58.9263L48.1765 47.3504Z" fill="#101010"/>
</g>
</g>
<defs>
<clipPath id="clip0_2_2">
<rect width="140" height="808" fill="white"/>
</clipPath>
<clipPath id="clip1_2_2">
<rect width="808" height="140" fill="white" transform="translate(0 808) rotate(-90)"/>
</clipPath>
</defs>
</svg>
